# xmcd CD database file
#
# Track frame offsets:
#	150
#	18043
#	36847
#
# Disc length: 686 seconds
#
# Revision: 0
# Processed by: cddbd v1.5.1PL0 Copyright (c) Steve Scherf et al.
# Submitted via: CDex 1.60beta1
#
DISCID=1602ac03
DTITLE=Mille Face - 夜光虫
DYEAR=1900
DGENRE=未分類 (日本)
TTITLE0=夜光虫
TTITLE1=未来に吹く風
TTITLE2=ボーナストラック
EXTD=
EXTT0=
EXTT1=
EXTT2=
PLAYORDER=
